<svg width="530" height="573" viewBox="0 0 530 573" fill="none" xmlns="http://www.w3.org/2000/svg">
<path d="M515.447 0.943878H14C7.37258 0.943878 2 6.31649 2 12.9439V514.391C2 521.018 7.37261 526.391 14 526.391H515.447C522.074 526.391 527.447 521.018 527.447 514.391V12.9439C527.447 6.31646 522.074 0.943878 515.447 0.943878Z" stroke="black" stroke-width="4" stroke-miterlimit="10"/>
<path d="M113.085 527.347H387.62C388.773 516.856 346.721 293.769 297.324 222.052C291.716 213.913 243.71 207.991 226.087 228.236C132.734 335.444 110.83 524.777 113.085 527.347Z" fill="black"/>
<path d="M303.835 240.566C311.627 260.753 341.023 331.528 357 382.322C367.721 416.409 371.803 445.017 374.149 452.534C374.149 452.534 293.088 426.496 274.836 426.451C246.728 426.381 201.638 485.089 212.699 492.44C230.086 504.007 312.967 543.343 379.154 555.692C415.131 562.408 482.921 516.677 477.563 480.321C470.046 429.297 377.84 294.801 342.76 256.664C324.547 236.868 294.337 215.963 303.835 240.566Z" fill="#FF9581"/>
<path d="M482.504 491.107C480.806 527.859 434.831 558.8 408.165 560.434C362.178 563.222 224.222 523.047 224.222 523.047L277.848 419.735C277.848 419.735 371.72 451.598 374.104 452.495V452.457C373.277 449.72 350.143 362.789 339.806 333.983C339.255 332.393 338.614 330.766 338.011 329.054C335.038 321.076 330.956 310.54 326.444 299.159L326.399 299.075C323.9 292.776 321.259 286.188 318.664 279.69V279.651C307.327 251.486 296.279 224.679 296.279 224.679C312.082 227.274 327.687 235.58 353.308 262.47C378.878 289.328 485.311 430.476 482.504 491.107Z" fill="black"/>
<path d="M259.975 500.694C263.801 493.382 267.691 486.101 271.53 478.796C275.298 471.644 279.111 464.518 282.956 457.404C286.929 450.047 291.101 442.703 294.312 434.974C294.37 434.827 294.171 434.705 294.075 434.833C289.249 441.197 285.276 448.214 281.309 455.129C277.201 462.294 273.196 469.523 269.229 476.771C265.339 483.871 261.596 491.042 257.905 498.239C254.111 505.647 250.279 513.325 247.536 521.194C247.427 521.508 247.863 521.816 248.068 521.508C252.503 514.927 256.297 507.717 259.975 500.694Z" fill="#2B454E"/>
<path d="M402.814 467.741L374.149 452.54L374.104 452.502V452.463C373.277 449.727 350.143 362.795 339.806 333.989C339.255 332.4 338.614 330.772 338.011 329.061C335.038 321.082 330.956 310.547 326.444 299.165L402.814 467.741Z" fill="#1C1C1C"/>
<path d="M426.545 480.353C418.586 474.406 410.005 469.087 401.36 464.197C397.04 461.749 392.631 459.5 388.101 457.475C383.281 455.321 378.187 453.764 373.399 451.598C373.034 451.431 372.765 451.995 373.13 452.162C377.603 454.187 381.852 457.007 386.172 459.359C390.664 461.807 395.176 464.217 399.726 466.556C408.659 471.151 417.432 476.027 426.315 480.718C426.526 480.834 426.744 480.501 426.545 480.353Z" fill="#1C1C1C"/>
<path d="M405.672 458.096C398.476 458.193 355.039 446.593 348.714 452.553C310.16 488.896 297.971 481.577 289.762 486.313C226.234 522.861 141.398 565.798 111.118 566.067C65.1944 566.439 46.9045 527.898 54.5499 491.485C69.642 419.504 166.718 279.151 210.642 241.854C233.931 222.109 232.091 251.89 222.459 284.265C216.807 303.247 206.925 331.471 196.845 359.168C187.918 383.841 164.257 446.888 163.847 448.368V448.407C163.809 448.49 163.77 448.535 163.777 448.58C163.745 448.746 163.911 448.778 164.283 448.676C166.302 448.304 220.627 422.702 275.259 408.635C294.51 403.682 334.602 396.62 348.976 403.034C357.525 406.847 357.666 411.949 357.666 411.949C357.666 411.949 364.517 411.327 371.746 417.274C376.539 421.222 378.026 426.804 378.026 426.804C378.026 426.804 385.524 427.855 389.427 432.2C394.079 437.384 394.49 442.87 394.49 442.87C404.615 445.574 405.672 458.096 405.672 458.096Z" fill="white"/>
<path d="M341.504 410.43C335.711 410.513 330.059 411.353 324.368 412.352C323.983 412.423 323.996 413.019 324.406 412.974C329.994 412.359 335.653 412.231 341.267 412.045C346.849 411.859 352.52 411.737 358.102 411.853C358.134 411.853 358.141 411.795 358.109 411.788C352.54 410.872 347.169 410.347 341.504 410.43Z" fill="#1A2E35"/>
<path d="M377.866 426.471C367.92 423.741 359.993 422.228 347.502 423.792C347.099 423.843 347.131 424.439 347.528 424.413C359.397 423.676 367.138 424.881 377.847 426.682C377.968 426.708 377.975 426.503 377.866 426.471Z" fill="#1A2E35"/>
<path d="M394.381 442.536C384.409 438.435 376.732 437.153 365.664 437.153C365.273 437.153 365.145 437.73 365.549 437.768C376.168 438.781 383.935 440.306 394.233 442.985C394.49 443.049 394.624 442.639 394.381 442.536Z" fill="#1A2E35"/>
<path d="M272.606 409.27C267.838 409.892 263.07 411.295 258.405 412.442C253.432 413.666 248.471 415.019 243.601 416.627C233.847 419.844 224.382 423.702 215.045 427.957C214.686 428.124 214.878 428.675 215.263 428.541C224.773 425.208 234.379 422.087 243.992 419.062C248.721 417.576 253.419 415.993 258.129 414.455C262.961 412.872 267.992 411.673 272.741 409.872C273.061 409.751 272.965 409.219 272.606 409.27Z" fill="#1A2E35"/>
<path d="M234.61 419.568C244.665 416.165 249.209 416.146 249.209 416.146L306.366 512.665C306.366 512.665 148.935 569.342 116.616 572.655C84.2919 575.968 47.5198 550.514 46.8982 509.935C46.0266 452.899 139.033 315.93 185.822 262.963C207.265 238.688 232.264 221.058 238.641 225.038C246.171 229.735 232.495 260.259 225.286 283.028C211.982 325.062 164.296 448.676 164.296 448.676C164.296 448.676 222.633 423.625 234.61 419.568Z" fill="black"/>
<path d="M248.696 416.069C239.827 416.588 201.484 429.944 182.682 438.012C163.943 446.055 145.916 455.597 129.004 467.017C119.436 473.477 110.355 480.507 101.383 487.768C101.076 488.018 101.409 488.518 101.742 488.28C118.276 476.457 135.938 465.908 153.811 456.251C171.595 446.644 189.705 437.525 208.553 430.174C219.287 425.99 237.744 419.722 248.228 416.973C251.195 416.191 248.971 416.05 248.696 416.069Z" fill="#1C1C1C"/>
<path d="M210.95 331.669C208.553 335.54 206.124 339.385 204.073 343.461C203.977 343.653 203.887 343.845 203.791 344.038C206.835 334.777 209.726 325.491 212.494 316.141C212.667 315.564 211.712 315.257 211.494 315.814C197.966 350.074 185.412 384.751 173.236 419.517C169.826 429.239 166.84 439.063 163.745 448.881C163.636 449.221 164.193 449.394 164.334 449.073C168.051 440.652 171.794 432.289 175.197 423.721C178.599 415.159 181.759 406.501 184.957 397.863C190.545 382.758 195.87 367.576 201.004 352.317C202.612 349.645 204.234 346.979 205.752 344.262C207.963 340.295 209.783 336.142 211.629 331.996C211.828 331.541 211.2 331.265 210.95 331.669Z" fill="#1C1C1C"/>
<path d="M268.062 491.645C263.871 484.532 259.744 477.386 255.572 470.266C251.484 463.287 247.453 456.283 243.441 449.266C239.295 442.005 235.264 434.584 230.4 427.771C230.31 427.643 230.092 427.752 230.156 427.9C233.008 435.359 236.866 442.44 240.647 449.458C244.562 456.731 248.587 463.947 252.644 471.144C256.617 478.194 260.725 485.16 264.89 492.1C269.171 499.233 273.67 506.545 278.906 513.03C279.117 513.287 279.604 513.088 279.457 512.742C276.208 505.5 272.087 498.477 268.062 491.645Z" fill="#1C1C1C"/>
<path d="M308.641 512.87C303.899 503.52 296.523 494.337 291.063 485.442C290.857 485.102 290.351 485.454 290.55 485.794C295.51 494.138 300.054 503.129 304.796 511.614C283.174 520.541 260.218 528.5 238.167 536.312C215.538 544.336 192.762 551.936 169.672 558.588C156.766 562.305 143.84 566.336 130.856 569.746C130.049 569.957 130.266 570.624 131.093 570.463C154.452 566.067 177.388 559.319 200.004 552.141C223.068 544.823 245.831 536.646 268.485 528.18C281.232 523.418 309.026 513.626 308.641 512.87Z" fill="#1C1C1C"/>
<path d="M271.151 409.334C241.422 416.947 207.214 429.476 191.884 435.474C191.481 435.615 191.115 435.756 190.75 435.891C177.247 441.197 168.884 445.132 166.878 445.465C166.712 445.388 166.584 445.273 166.455 445.196V445.157C165.052 444.145 163.661 443.376 162.277 442.857C158.47 441.492 121.891 436.923 122.813 425.592C123.704 414.384 138.61 415.082 140.802 415.236C138.431 414.717 118.577 410.064 125.044 400.15C129.613 393.12 149.274 394.152 151.254 394.229C149.249 393.569 131.01 387.622 137.284 377.503C141.776 370.261 163.725 371.203 166.257 371.633C164.206 370.851 147.948 368.127 155.535 359.405C160.803 353.33 202.132 359.508 220.505 368.678C247.824 382.316 271.151 409.334 271.151 409.334Z" fill="white"/>
<path d="M191.884 435.475C191.481 435.616 191.115 435.757 190.75 435.891C184.406 430.963 160.399 418.249 141.539 415.833C140.373 415.685 140.296 415.012 141.533 415.07C164.821 416.127 185.758 429.842 191.884 435.475Z" fill="#1A2E35"/>
<path d="M152.152 394.979C178.183 400.144 189.949 405.893 212.334 420.113C212.648 420.312 213 419.85 212.699 419.62C191.833 404.002 178.849 396.267 152.376 394.319C151.177 394.229 150.96 394.742 152.152 394.979Z" fill="#1A2E35"/>
<path d="M167.058 372.171C192.032 378.81 205.195 384.565 225.311 400.843C225.785 401.227 226.369 400.644 225.933 400.215C206.976 381.829 190.596 374.542 167.295 371.479C165.706 371.274 165.488 371.755 167.058 372.171Z" fill="#1A2E35"/>
<path d="M292.107 272.019C277.316 277.338 248.587 257.068 236.148 239.419C235.302 238.201 235.738 224.378 235.469 207.549C235.27 197.34 234.802 185.972 233.629 175.635L300.265 184.03C300.265 184.03 296.349 206.428 298.503 224.442C298.701 225.948 299.009 227.332 299.432 228.633C299.477 228.825 299.56 229.056 299.605 229.325C301.842 237.233 306.404 266.866 292.107 272.019Z" fill="white" stroke="black" stroke-width="0.640852" stroke-miterlimit="10"/>
<path d="M299.631 229.319C299.759 229.748 299.887 230.216 299.97 230.773C260.077 229.082 244.902 211.542 235.084 194.713C234.783 188.298 234.36 181.793 233.629 175.635L300.271 184.017C300.271 184.017 296.337 206.434 298.515 224.442C298.689 225.941 299.028 227.306 299.458 228.633C299.502 228.8 299.541 229.062 299.631 229.319Z" fill="black" stroke="black" stroke-width="0.640852" stroke-miterlimit="10"/>
<path d="M206.316 105.737C202.702 129.66 224.536 194.021 242.992 206.37C269.748 224.269 308.699 220.622 322.682 189.567C336.236 159.466 306.296 76.0975 286.134 65.376C256.437 49.5791 211.655 70.3939 206.316 105.737Z" fill="white" stroke="black" stroke-width="1.2817" stroke-miterlimit="10"/>
<path d="M267.934 134.684C267.845 134.531 267.665 135.005 267.729 135.178C269.312 139.472 270.408 144.663 266.96 147.412C266.851 147.495 266.941 147.713 267.075 147.642C271.645 145.374 270.126 138.498 267.934 134.684Z" fill="black"/>
<path d="M262.538 131.448C255.38 133.249 259.507 147.437 266.14 145.771C272.67 144.124 268.543 129.936 262.538 131.448Z" fill="black"/>
<path d="M294.671 126.635C294.658 126.456 295.074 126.744 295.119 126.924C296.26 131.358 298.311 136.248 302.713 136.549C302.848 136.556 302.906 136.786 302.752 136.806C297.695 137.536 295.036 131.019 294.671 126.635Z" fill="black"/>
<path d="M297.26 120.9C304.174 118.304 308.853 132.326 302.444 134.723C296.144 137.094 291.466 123.072 297.26 120.9Z" fill="black"/>
<path d="M255.053 126.584C256.841 125.533 258.322 124.271 259.988 123.047C261.865 121.669 263.5 120.765 264.326 118.484C264.769 117.26 263.935 115.536 262.788 114.991C260.11 113.729 257.392 114.844 255.066 116.407C252.541 118.106 251.029 120.06 250.144 122.97C249.286 125.789 252.688 127.968 255.053 126.584Z" fill="black"/>
<path d="M300.669 112.159C298.605 112.408 296.663 112.3 294.606 112.338C292.28 112.383 290.428 112.658 288.384 111.338C287.288 110.633 286.91 108.756 287.493 107.628C288.852 105 291.69 104.238 294.491 104.071C297.529 103.892 299.919 104.526 302.38 106.308C304.77 108.031 303.386 111.825 300.669 112.159Z" fill="black"/>
<path d="M278.104 175.43C279.457 176.154 280.918 177.263 282.552 176.936C284.116 176.622 285.711 175.411 286.955 174.456C287.076 174.36 287.262 174.468 287.211 174.629C286.564 176.647 284.468 178.403 282.328 178.64C280.238 178.871 278.752 177.436 277.739 175.757C277.598 175.519 277.906 175.327 278.104 175.43Z" fill="black"/>
<path d="M278.893 160.927C282.462 164.029 286.685 165.061 290.819 164.676C292.665 164.516 294.523 164.042 296.273 163.356C296.625 163.247 296.965 163.106 297.266 162.94C297.574 162.805 297.856 162.683 298.189 162.51C298.682 162.286 298.842 161.78 298.785 161.267L298.772 161.235C298.721 161.075 298.682 160.947 298.599 160.799C298.599 160.799 298.599 160.799 298.593 160.767L298.471 160.383C297.58 156.973 295.754 151.923 295.754 151.923C297.17 152.18 304.303 153.186 303.687 151.443C298.554 137.062 292.851 121.066 284.705 107.839C284.462 107.391 283.757 107.717 283.936 108.185C288.32 122.201 295.145 135.351 299.772 149.366C297.535 149.187 293.844 148.726 292.081 149.277C291.639 149.552 295.786 158.973 296.061 160.536C296.061 160.536 296.08 160.601 296.08 160.709C290.608 163.093 285.82 162.619 279.188 160.408C278.79 160.254 278.527 160.652 278.893 160.927Z" fill="black"/>
<path opacity="0.2" d="M213.34 151.077C217.115 147.988 221.883 132.159 224.1 125.623C226.401 118.83 219.575 91.2921 217.345 83.1021C211.712 89.4593 207.745 97.2329 206.348 105.987C204.746 115.952 207.848 133.614 213.34 151.077Z" fill="black"/>
<path d="M276.342 91.0166C273.144 97.9122 266.665 102.847 259.065 103.757C251.663 104.641 243.236 101.776 238.724 95.6435C238.59 95.4641 238.308 95.6692 238.442 95.855C243.268 102.405 250.939 106.737 259.257 105.538C267.063 104.41 274.138 98.6363 276.842 91.2409C276.957 90.9077 276.49 90.6962 276.342 91.0166Z" fill="#1A2E35"/>
<path d="M239.397 45.0357C227.202 48.8359 217.89 58.8653 215.807 68.5165C214.538 74.3803 215.615 79.6545 217.948 84.6659C218.044 84.871 218.467 84.698 218.39 84.4865C215.295 76.3797 216.679 65.7352 223.914 57.3721C230.867 49.3422 241.723 44.35 252.624 45.2536C258.315 45.7214 263.41 47.7849 266.685 51.143C267.05 51.5211 267.889 50.9636 267.562 50.5662C262.019 43.8629 250.433 41.6007 239.397 45.0357Z" fill="#1A2E35"/>
<path d="M318.318 51.1558C314.646 45.6702 308.936 41.7033 302.604 39.9217C293.735 37.4224 285.417 40.5626 277.22 43.8437C276.996 43.9334 277.137 44.2795 277.355 44.1898C284.346 41.4149 291.594 39.0117 299.182 40.4921C305.366 41.7033 311.205 45.0037 315.21 49.8998C323.528 60.0637 322.951 75.7966 313.723 85.1915C308.5 90.5105 301.002 93.5225 293.555 93.279C293.261 93.2726 293.177 93.7212 293.479 93.7404C307.199 94.5479 320.228 84.6532 322.413 70.9389C323.496 64.1715 322.157 56.8786 318.318 51.1558Z" fill="#1A2E35"/>
<path d="M206.169 119.432C206.169 119.432 188.283 100.758 194.441 85.2746C197.928 76.5014 216.538 72.2654 216.538 72.2654C216.538 72.2654 219.467 60.0507 233.681 52.2772C248.042 44.4268 268.825 48.2334 268.825 48.2334C268.825 48.2334 281.046 35.7688 296.907 39.7165C319.023 45.2214 324.835 74.8993 308.301 89.6388C296.689 99.9886 275.054 93.234 275.054 93.234C273.362 93.971 258.43 109.903 240.294 97.6815C240.294 97.6815 232.008 110.633 220.14 106.545C220.146 106.551 217.935 117.945 206.169 119.432Z" fill="black"/>
<path d="M299.413 227.915L285.237 267.129L235.635 220.321L222.696 236.439C222.696 236.439 272.35 311.918 272.51 308.413L287.089 274.685L310.826 296.858L306.77 239.073L299.413 227.915Z" fill="#EDEFEF"/>
<path d="M310.442 268.18C309.449 258.664 308.718 249.044 307.289 239.585C307.238 239.252 306.706 239.118 306.635 239.521C305.072 248.807 309.051 285.188 309.346 293.936C309.314 293.904 309.276 293.872 309.244 293.84C308.25 292.879 287.282 274.371 287.089 274.678C283.853 280.068 273.151 304.632 272.439 306.856C264.589 294.865 234.572 251.332 225.388 240.06C225.125 239.733 224.619 240.028 224.831 240.412C231.848 253.12 271.6 311.771 272.17 311.579C272.574 311.867 285.891 281.606 287.403 275.928C290.986 279.998 312.243 300.979 312.256 299.556C312.358 289.976 311.429 277.71 310.442 268.18Z" fill="#1C1C1C"/>
<path d="M228.394 157.556C228.394 157.556 209.905 138.741 201.125 145.681C192.346 152.622 208.745 181.646 220.812 183.966C232.88 186.286 235.244 175.16 235.244 175.16L228.394 157.556Z" fill="white" stroke="black" stroke-width="1.2817" stroke-miterlimit="10"/>
<path d="M206.034 153.878C205.849 153.89 205.855 154.153 206.028 154.192C214.532 156.082 219.967 162.76 224.19 169.924C221.325 167.374 217.833 166.304 214.353 169.783C214.173 169.969 214.423 170.258 214.641 170.174C217.788 168.931 220.236 169.098 222.876 171.341C224.747 172.93 226.208 175.09 227.682 177.038C228.176 177.685 229.4 177.089 228.99 176.314C228.958 176.256 228.926 176.198 228.894 176.141C227.381 165.958 217.108 153.07 206.034 153.878Z" fill="#1A2E35"/>
</svg>
