<svg width="20" height="20" viewBox="0 0 26 26" fill="none" xmlns="http://www.w3.org/2000/svg">
<path d="M18.2589 10.0378C20.4024 10.0378 22.1399 8.30894 22.1399 6.17635C22.1399 4.04375 20.4024 2.31494 18.2589 2.31494C16.1155 2.31494 14.3779 4.04375 14.3779 6.17635C14.3779 8.30894 16.1155 10.0378 18.2589 10.0378Z" stroke="black" stroke-width="2"/>
<path d="M6.23506 20.8831C7.78438 20.8831 9.04036 19.6334 9.04036 18.0919C9.04036 16.5504 7.78438 15.3008 6.23506 15.3008C4.68573 15.3008 3.42975 16.5504 3.42975 18.0919C3.42975 19.6334 4.68573 20.8831 6.23506 20.8831Z" stroke="black" stroke-width="2"/>
<path d="M6.25896 11.2269C9.06248 11.2269 11.3352 8.96567 11.3352 6.17631C11.3352 3.38696 9.06248 1.12573 6.25896 1.12573C3.45544 1.12573 1.18274 3.38696 1.18274 6.17631C1.18274 8.96567 3.45544 11.2269 6.25896 11.2269Z" stroke="black" stroke-width="2"/>
<path d="M18.235 24.6885C21.8703 24.6885 24.8172 21.7564 24.8172 18.1395C24.8172 14.5226 21.8703 11.5906 18.235 11.5906C14.5998 11.5906 11.6528 14.5226 11.6528 18.1395C11.6528 21.7564 14.5998 24.6885 18.235 24.6885Z" stroke="black" stroke-width="2"/>
</svg>
