<svg width="30" height="47" viewBox="0 0 30 47" fill="none" xmlns="http://www.w3.org/2000/svg">
<path d="M14 0.943848V14.9438H7C3.145 14.9438 0 11.7988 0 7.94385C0 4.08885 3.145 0.943848 7 0.943848H14ZM14 16.9438V30.9438H7C3.145 30.9438 0 27.7988 0 23.9438C0 20.0888 3.145 16.9438 7 16.9438H14ZM14 32.9438V39.9438C14 43.7988 10.855 46.9438 7 46.9438C3.145 46.9438 0 43.7988 0 39.9438C0 36.0888 3.145 32.9438 7 32.9438H14ZM30 7.94385C30 11.7988 26.855 14.9438 23 14.9438H16V0.943848H23C26.855 0.943848 30 4.08885 30 7.94385ZM23 16.9438C21.1435 16.9438 19.363 17.6813 18.0503 18.9941C16.7375 20.3069 16 22.0873 16 23.9438C16 25.8004 16.7375 27.5808 18.0503 28.8936C19.363 30.2063 21.1435 30.9438 23 30.9438C24.8565 30.9438 26.637 30.2063 27.9497 28.8936C29.2625 27.5808 30 25.8004 30 23.9438C30 22.0873 29.2625 20.3069 27.9497 18.9941C26.637 17.6813 24.8565 16.9438 23 16.9438Z" fill="black"/>
</svg>
