<svg width="36" height="45" viewBox="0 0 36 45" fill="none" xmlns="http://www.w3.org/2000/svg">
<path d="M22.2497 0.986848L1.2497 21.9868C0.858698 22.3778 0.858698 23.0108 1.2497 23.4008L6.8357 28.9868C7.2267 29.3778 7.8597 29.3778 8.2497 28.9868L34.8357 2.40085C35.4657 1.77085 35.0197 0.693848 34.1287 0.693848H22.9567C22.6917 0.693848 22.4377 0.798848 22.2497 0.986848ZM34.8357 22.4008L17.5427 39.6938L11.2497 33.4008C10.8587 33.0098 10.8587 32.3768 11.2497 31.9868L22.2497 20.9868C22.4377 20.7988 22.6917 20.6938 22.9567 20.6938H34.1287C35.0197 20.6938 35.4657 21.7708 34.8357 22.4008ZM34.8357 42.9868L27.5427 35.6938L17.5427 39.6938L22.2497 44.4008C22.4377 44.5888 22.6917 44.6938 22.9567 44.6938H34.1287C35.0197 44.6938 35.4657 43.6168 34.8357 42.9868Z" fill="black"/>
</svg>
