<svg width="57" height="57" viewBox="0 0 56 57" fill="none" xmlns="http://www.w3.org/2000/svg">
<path d="M49.2333 26.7272L30.2166 7.71056C29.6333 7.12722 28.8166 6.77722 28 6.77722C27.1833 6.77722 26.3666 7.12722 25.7833 7.71056L21.7 11.7939L26.4833 16.5772C26.95 16.3439 27.4166 16.2272 28 16.2272C29.9833 16.2272 31.5 17.7439 31.5 19.7272C31.5 20.3106 31.3833 20.7772 31.15 21.2439L35.8166 25.9106C36.2833 25.6772 36.75 25.5606 37.3333 25.5606C39.3167 25.5606 40.8333 27.0772 40.8333 29.0606C40.8333 31.0439 39.3167 32.5606 37.3333 32.5606C35.35 32.5606 33.8333 31.0439 33.8333 29.0606C33.8333 28.4772 33.95 28.0106 34.1833 27.5439L29.5166 22.8772C29.4 22.8772 29.2833 22.9939 29.1666 22.9939V35.1272C30.5666 35.5939 31.5 36.8772 31.5 38.3939C31.5 40.3772 29.9833 41.8939 28 41.8939C26.0166 41.8939 24.5 40.3772 24.5 38.3939C24.5 36.8772 25.4333 35.5939 26.8333 35.1272V22.8772C25.4333 22.4106 24.5 21.1272 24.5 19.6106C24.5 19.0272 24.6166 18.5606 24.85 18.0939L20.0666 13.3106L6.76665 26.7272C6.18331 27.3106 5.83331 28.1272 5.83331 28.9439C5.83331 29.7606 6.18331 30.5772 6.76665 31.1606L25.7833 50.1772C26.3666 50.7606 27.1833 51.1106 28 51.1106C28.8166 51.1106 29.6333 50.7606 30.2166 50.1772L49.2333 31.1606C49.8167 30.5772 50.1666 29.7606 50.1666 28.9439C50.1666 28.1272 49.8167 27.3106 49.2333 26.7272Z" fill="black"/>
</svg>
