<svg width="20" height="20" viewBox="0 0 24 25" fill="none" xmlns="http://www.w3.org/2000/svg">
<path d="M12 7.50635C12.9876 7.50635 13.8984 7.75955 14.686 8.25668C15.145 8.54634 15.7599 8.55017 16.1437 8.16642L17.2894 7.02071C17.6899 6.62017 17.6811 5.9619 17.225 5.62604C15.7907 4.56995 14.0321 3.94385 12 3.94385C8.48249 3.94385 5.44124 5.96135 3.95999 8.90135L6.95249 11.2225C7.66124 9.08885 9.65249 7.50635 12 7.50635Z" stroke="black" stroke-width="1.25" stroke-linecap="round"/>
<path d="M20.6175 13.1501C20.6175 12.8593 20.6038 12.5731 20.5795 12.292C20.5372 11.8016 20.1124 11.4438 19.6202 11.4438H13C12.4477 11.4438 12 11.8915 12 12.4438V13.8263C12 14.3786 12.4477 14.8263 13 14.8263H16.8525C16.635 15.9363 16.005 16.8813 15.06 17.5188L17.9587 19.7688C19.65 18.2013 20.6175 15.8838 20.6175 13.1501Z" stroke="black" stroke-width="1.25" stroke-linecap="round"/>
<path d="M6.94875 14.6651C6.76875 14.1214 6.66375 13.5439 6.66375 12.9439C6.66375 12.3439 6.765 11.7664 6.94875 11.2226L3.95625 8.90137C3.345 10.1164 3 11.4889 3 12.9439C3 14.3989 3.345 15.7714 3.96 16.9864L6.94875 14.6651Z" stroke="black" stroke-width="1.25" stroke-linecap="round"/>
<path d="M12 21.9439C14.43 21.9439 16.4737 21.1451 17.9587 19.7651L15.06 17.5151C14.2537 18.0589 13.215 18.3776 12 18.3776C9.65249 18.3776 7.66124 16.7951 6.94874 14.6614L3.95624 16.9826C5.44124 19.9264 8.48249 21.9439 12 21.9439Z" stroke="black" stroke-width="1.25" stroke-linecap="round"/>
</svg>
