<svg width="795" height="597" viewBox="0 0 795 597" fill="none" xmlns="http://www.w3.org/2000/svg">
<path d="M293.457 439.618C217.494 482.393 260.27 587.856 285.345 592.281C304.658 595.69 368.149 593.736 398.921 592.281L637.134 416.018L497.745 396.843C454.97 396.843 354.228 405.398 293.457 439.618Z" fill="white"/>
<path d="M398.921 592.281C397.822 592.336 400.111 592.225 398.921 592.281ZM398.921 592.281C368.149 593.736 304.658 595.69 285.345 592.281C260.27 587.856 217.494 482.393 293.457 439.618C354.228 405.398 454.97 396.843 497.745 396.843L637.134 416.018L398.921 592.281Z" stroke="black" stroke-width="2.91102"/>
<path d="M314.106 454.096C366.616 444.066 409.244 474.909 423.994 491.584C426.458 488.139 429.122 484.733 431.998 481.384C427.464 461.471 339.181 440.083 314.106 454.096Z" fill="#000001"/>
<path d="M393.596 594.464C395.46 594.382 397.239 594.301 398.92 594.222L593.486 450.255C584.915 447.356 562.823 438.437 543.029 425.953C408.733 441.867 387.451 544.924 393.596 594.464Z" fill="#0E1729"/>
<path d="M615.745 594.221C712.357 563.246 637.132 423.12 637.132 417.958L600.994 412.986C416.913 424.349 389.576 538.544 398.918 594.221L429.984 850.135H510.037L516.919 594.221H615.745Z" fill="white" stroke="black" stroke-width="2.91102"/>
<path d="M497.745 541.122C509.545 552.922 515.446 581.439 516.921 594.222H527.983C525.033 579.718 514.855 548.792 497.745 541.122Z" fill="#000001"/>
<rect y="593.944" width="796" height="3" fill="black"/>
<path d="M512.714 147.031C508.83 142.087 498.73 126.902 489.407 105.714C491.526 103.241 495.551 95.7543 494.704 85.5838C483.686 83.8887 477.009 60.1573 475.048 48.5036C489.679 40.3875 477.212 18.7368 481.991 17.7805C487.288 16.7205 501.061 22.0177 501.061 35.7904C501.061 49.563 524.657 43.0619 530.725 40.0281C545.556 32.6121 540.26 50.6235 533.903 67.5739C530.513 73.5068 542.378 84.878 548.735 89.822C550.429 106.773 535.315 132.906 527.546 143.853C528.606 175.636 528.818 239.202 521.19 239.202C516.105 229.032 513.421 173.517 512.714 147.031Z" fill="white" stroke="black" stroke-width="1.94068"/>
<path d="M503.177 50.6162C501.411 52.3819 498.939 57.3966 503.177 63.3294" stroke="#241715" stroke-width="0.970341"/>
<path d="M511.652 66.5156C510.946 70.4002 507.838 76.2624 501.058 68.6345" stroke="#241715" stroke-width="0.970341"/>
<path d="M534.96 53.7975C536.372 49.9129 538.138 42.3556 533.9 43.2032" stroke="#241715" stroke-width="0.970341"/>
<path d="M493.572 97.2354C494.506 94.0007 495.075 90.0504 494.702 85.5821C500.573 88.7609 510.592 89.8204 531.781 74.9873C532.627 86.0054 506.661 94.4103 493.572 97.2354Z" fill="black"/>
<path d="M547.674 17.7795C555.09 35.7898 538.139 60.1568 533.901 67.5729C540.258 50.6224 544.495 32.611 530.723 40.027C524.75 43.2433 501.059 49.5619 501.059 35.7893C501.059 22.0167 487.286 16.7195 481.989 17.7795C477.21 18.7357 489.677 40.3864 475.047 48.5025C473.46 49.3824 471.556 50.1032 469.276 50.6214C474.573 43.2053 472.454 44.2648 468.216 26.2544C463.979 8.24401 483.049 4.00681 501.059 1.88794C519.069 -0.230925 540.258 -0.230924 547.674 17.7795Z" fill="black"/>
<path d="M647.26 132.2C633.699 114.401 575.924 96.532 548.732 89.8223C550.427 106.773 535.313 132.906 527.544 143.853C528.604 175.636 528.815 239.202 521.188 239.202C516.102 229.032 513.418 173.518 512.712 147.032C508.827 142.088 498.728 126.902 489.405 105.714C487.286 112.07 430.076 155.507 420.541 169.28C411.006 183.052 407.828 315.482 407.828 327.135C407.828 338.789 403.59 418.247 438.552 418.247C466.521 418.247 580.869 422.131 638.784 423.544C647.26 333.845 660.82 149.998 647.26 132.2Z" fill="black"/>
<path d="M407.831 327.129C465.747 315.122 581.578 301.915 581.578 345.139C581.578 388.364 527.9 412.792 501.061 419.603M581.578 99.2507C574.515 102.462 559.542 117.573 556.152 152.322C551.914 195.759 538.311 210.591 527.291 210.591M516.477 212.71C507.454 217.654 487.712 221.398 480.932 196.819C472.457 166.095 454.774 149.144 435.011 154.441M613.361 111.005C611.242 110.108 577.341 133.253 574.162 186.224C570.984 239.196 537.082 338.783 467.159 285.811C440.672 259.325 415.151 242.728 410.865 244.493M489.408 419.283C498.942 410.107 515.47 388.788 505.299 376.922C495.128 365.057 439.497 381.16 412.953 390.695M652.348 159.739C629.464 173.864 587.299 218.855 601.708 285.811C614.421 323.951 637.653 320.066 647.68 313.356M643.847 365.269C630.153 365.449 604.038 377.198 609.124 422.749" stroke="white" stroke-width="0.970341"/>
<path d="M521.188 418.237V240.252" stroke="#027269" stroke-width="0.970341"/>
<path d="M521.824 416.504L516.617 377.791C504.777 379.938 480.119 382.02 461.071 383.825C441.13 385.715 436.105 396.185 449.49 399.529C442.489 398.655 434.65 408.308 445.822 412.63C437.627 415.541 453.836 418.789 461.782 418.805C457.234 419.492 449.349 420.759 450.421 425.578C451.493 430.396 498.469 421.536 521.824 416.504Z" fill="white"/>
<path d="M521.824 416.505L516.617 377.792C513.863 378.292 510.415 378.788 506.505 379.277L494.66 421.895C504.612 420.086 514.409 418.103 521.824 416.505Z" fill="black"/>
<path d="M462.106 419.09L478.58 414.453" stroke="black" stroke-width="0.970341"/>
<path d="M449.596 408.745L478.476 405.239" stroke="black" stroke-width="0.970341"/>
<path d="M449.491 399.528L478.988 394.426" stroke="black" stroke-width="0.970341"/>
<path d="M678.692 382.508C681.255 341.935 684.054 137.466 638.286 126.444C585.382 113.703 586.076 308.699 609.043 353.184L501.016 364.166L511.152 431.567C563.673 427.899 674.449 449.647 678.692 382.508Z" fill="black"/>
<path d="M638.285 126.443C585.382 113.703 586.075 308.698 609.043 353.184L501.015 364.166" stroke="white" stroke-width="0.970341"/>
<path d="M660.322 155.827C643.975 157.605 607.645 167.043 598.733 189.165M670.493 191.425C655.761 197.869 621.271 219.561 616.92 241.829C612.57 264.096 658.646 256.578 677.274 252.449M678.404 291.437C662.92 298.666 608.644 303.464 596.473 286.917M678.968 360.937C663.111 351.314 617.46 332.105 605.514 339.466M562.571 357.547C555.79 372.238 566.409 426.259 596.473 432.133" stroke="white" stroke-width="0.970341"/>
<path d="M215.324 280.402H397.26C400.447 280.402 403.311 282.351 404.481 285.316L458.515 422.285C459.685 425.251 462.548 427.199 465.736 427.199H607.251C609.854 427.199 611.964 429.31 611.964 431.913C611.964 434.516 609.854 436.627 607.251 436.627H271.118C267.935 436.627 265.075 434.684 263.902 431.726L208.107 291.026C206.087 285.93 209.842 280.402 215.324 280.402Z" fill="white" stroke="black" stroke-width="2.91102"/>
<path d="M403.651 283.073L463.502 427.199H459.46C456.326 427.199 453.499 425.314 452.294 422.421L395.65 286.4C394.462 283.546 396.559 280.402 399.65 280.402C401.401 280.402 402.98 281.456 403.651 283.073Z" fill="black"/>
<path d="M263.902 431.726L208.107 291.026C206.087 285.93 209.842 280.402 215.324 280.402H229.352C230.507 280.402 231.643 280.66 232.692 281.143C237.658 283.43 245.954 287.026 259.731 293.987C305.822 317.275 311.644 366.762 301.941 391.021C294.074 410.687 398.053 431.015 438.905 436.627H271.118C267.935 436.627 265.075 434.684 263.902 431.726Z" fill="black"/>
<ellipse cx="11.5736" cy="13.3097" rx="11.5736" ry="13.3097" transform="matrix(-0.936312 0.351169 0.351169 0.936312 332.862 328.919)" fill="black"/>
</svg>
