<svg width="57" height="57" viewBox="0 0 42 47" fill="none" xmlns="http://www.w3.org/2000/svg">
<path d="M40.8094 0.768067C40.6219 0.561036 40.3523 0.443848 40.0711 0.443848H1.00076C0.719509 0.443848 0.449978 0.561036 0.262478 0.768067C0.0710711 0.975098 -0.0226788 1.25244 0.00466517 1.53369L3.5242 40.9595C3.55935 41.3735 3.84842 41.7173 4.24685 41.8345L20.2586 46.4048C20.3445 46.4321 20.4383 46.4438 20.532 46.4438C20.6258 46.4438 20.7156 46.4321 20.8054 46.4048L36.8289 41.8345C37.2273 41.7173 37.5125 41.3735 37.5515 40.9595L41.0672 1.53369C41.0945 1.25244 41.0008 0.975098 40.8094 0.768067ZM32.3836 14.3618H13.5711L14.0203 19.4517H31.9304L30.5867 34.4946L20.5281 37.5337L20.4304 37.5024L10.489 34.4907L9.94607 28.3618H14.8172L15.0281 30.7407L20.5867 31.9048L26.0437 30.7407L26.6258 24.3032H9.58279L8.25857 9.49854H32.8172L32.3836 14.3618Z" fill="black"/>
</svg>
