<svg width="57" height="57" viewBox="0 0 57 57" fill="none" xmlns="http://www.w3.org/2000/svg">
<path d="M0.5 56.9438V0.943848H56.5V56.9438H0.5Z" fill="black"/>
<path d="M37.1147 42.8614C38.1911 44.6099 39.3609 46.2852 41.8389 46.2852C43.9202 46.2852 45.0122 45.2508 45.0122 43.8197C45.0122 42.107 43.8829 41.4988 41.5931 40.5017L40.3378 39.9665C36.7149 38.4297 34.3053 36.5039 34.3053 32.4361C34.3053 28.6872 37.1753 25.8343 41.66 25.8343C44.8536 25.8343 47.148 26.9403 48.8031 29.8368L44.8924 32.3365C44.0322 30.7997 43.102 30.1945 41.66 30.1945C40.1884 30.1945 39.2567 31.1232 39.2567 32.3365C39.2567 33.8361 40.19 34.4428 42.3445 35.3714L43.5998 35.9065C47.8698 37.725 50.2778 39.5823 50.2778 43.7574C50.2778 48.2561 46.7249 50.7217 41.9556 50.7217C37.2905 50.7217 34.6413 48.3805 33.1667 45.4825L37.1147 42.8614ZM19.092 42.989C19.8791 44.3983 21.0753 45.4825 22.7958 45.4825C24.4416 45.4825 25.3889 44.8323 25.3889 42.3045V25.8328H30.5736V43.101C30.5736 48.3385 27.5356 50.7217 23.0991 50.7217C19.0904 50.7217 16.1971 48.0057 15.018 45.4825L19.092 42.989Z" fill="white"/>
</svg>
