<svg width="95" height="92" viewBox="0 0 95 92" fill="#fff" xmlns="http://www.w3.org/2000/svg">
<path d="M47.9472 -6.36688e-05L3 44.4331L47.8688 88.9439L92.816 44.5107L47.9472 -6.36688e-05Z" stroke="black" stroke-width="3" stroke-miterlimit="10"/>
<path d="M47.9463 13.2017L16.3447 44.4419L47.8912 75.7367L79.4927 44.4965L47.9463 13.2017Z" stroke="black" stroke-width="3" stroke-miterlimit="10"/>
<path d="M47.9893 24.2127L27.5142 44.4536L47.9535 64.7299L68.4286 44.489L47.9893 24.2127Z" stroke="black" stroke-width="3" stroke-miterlimit="10"/>
<path d="M47.9781 37.0069L40.4341 44.4646L47.9649 51.9353L55.5088 44.4776L47.9781 37.0069Z" stroke="black" stroke-width="3" stroke-miterlimit="10"/>
<path d="M54.779 7.756L53.4434 6.43335L45.9416 13.8622L47.2772 15.1849L54.779 7.756Z" fill="black"/>
<path d="M28.8704 47.1134L30.206 45.7908L22.7043 38.3619L21.3686 39.6845L28.8704 47.1134Z" fill="black"/>
<path d="M55.1661 31.2077L53.8305 29.885L46.5603 37.0846L47.8959 38.4073L55.1661 31.2077Z" fill="black"/>
<path d="M49.3932 51.8499L48.0587 50.5261L40.5504 57.9485L41.8849 59.2723L49.3932 51.8499Z" fill="black"/>
<path d="M73.6525 50.5786L74.9105 49.2681L67.988 42.7512L66.73 44.0617L73.6525 50.5786Z" fill="black"/>
<path d="M49.5034 75.4001L48.2346 74.1436L40.7328 81.5725L42.0017 82.829L49.5034 75.4001Z" fill="black"/>
</svg>
