<svg width="22" height="22" viewBox="0 0 22 22" fill="none" xmlns="http://www.w3.org/2000/svg">
<path d="M20.5 11C20.5 5.75329 16.2467 1.5 11 1.5C5.75329 1.5 1.5 5.75329 1.5 11C1.5 16.2467 5.75329 20.5 11 20.5C12.429 20.5 13.7843 20.1845 15 19.6194M20.5 11.25C20.5 12.4926 19.4926 13.5 18.25 13.5C17.0074 13.5 16 12.4926 16 11.25M16 11C16 13.7614 13.7614 16 11 16C8.23858 16 6 13.7614 6 11C6 8.23858 8.23858 6 11 6C13.7614 6 16 8.23858 16 11Z" stroke="black" stroke-width="1.25" stroke-linecap="round"/>
</svg>
