<svg width="55" height="56" viewBox="0 0 55 56" fill="none" xmlns="http://www.w3.org/2000/svg">
<path d="M54.9559 19.8098C53.9715 3.30891 35.0682 0.69397 27.5015 0.69397C19.9348 0.69397 1.02978 3.30891 0.0436459 19.8098C-0.518186 29.2292 4.52972 41.1445 4.52972 41.1445C6.47831 40.9028 6.62594 37.5157 6.58347 33.6737C6.575 32.8529 8.23833 32.0104 8.22823 31.1745C8.17902 26.9297 8.31144 22.8276 10.6911 22.3055C15.7339 21.1977 27.5015 20.6422 27.5015 20.6422C27.5015 20.6422 39.2675 21.1978 44.3085 22.3055C46.6899 22.8275 46.8223 26.9297 46.7731 31.1745C46.7613 32.0103 48.4264 32.8529 48.4179 33.6737C48.3754 37.5157 48.5231 40.9028 50.4716 41.1445C50.4716 41.1445 55.5211 29.2292 54.9559 19.8098Z" fill="white"/>
<path d="M27.9426 47.7728C26.398 47.5059 22.7216 47.2374 19.2574 49.8071C14.7238 53.1691 13.2131 54.6628 13.2131 54.6628C13.2131 54.6628 21.9069 58.2396 27.9426 52.0696C33.9784 58.2396 42.6722 54.6628 42.6722 54.6628C42.6722 54.6628 41.1616 53.1691 36.6279 49.8071C33.1637 47.2373 29.4872 47.5058 27.9426 47.7728Z" fill="white"/>
<path d="M16.8455 39.8974C20.7579 39.8974 22.2278 38.8081 22.2278 37.7205C22.2278 36.6328 14.8884 37.7205 12.9331 37.7205C12.9331 37.7205 12.9331 39.8974 16.8455 39.8974Z" fill="white"/>
<path d="M42.1189 37.7205C40.1618 37.7205 32.8242 36.6328 32.8242 37.7205C32.8242 38.8081 34.2925 39.8974 38.2047 39.8974C42.1189 39.8974 42.1189 37.7205 42.1189 37.7205Z" fill="white"/>
<path d="M23.1562 35.463C23.8572 35.7399 24.3987 34.857 23.3497 34.3888C22.8795 34.1806 17.8554 31.6814 15.1006 30.7012C14.1093 30.3488 13.5797 30.5451 13.2114 30.9094C12.4492 31.6631 11.1287 32.9353 10.83 33.2458C10.5313 33.558 10.9199 34.1488 11.6701 33.6621C12.6342 33.0376 13.6832 32.6231 13.6832 32.6231C13.6832 32.6231 22.4568 35.186 23.1562 35.463Z" fill="white"/>
<path d="M41.8524 30.9094C41.4858 30.5451 40.9529 30.3488 39.9616 30.7012C37.2069 31.6814 32.1844 34.1807 31.716 34.3888C30.6636 34.857 31.2067 35.7399 31.9078 35.463C32.6072 35.186 41.3807 32.623 41.3807 32.623C41.3807 32.623 42.4313 33.0375 43.3937 33.662C44.1456 34.1487 44.5325 33.5579 44.2338 33.2457C43.9368 32.9353 42.6162 31.663 41.8524 30.9094Z" fill="white"/>
</svg>
