<svg width="115" height="71" viewBox="0 0 115 71" fill="none" xmlns="http://www.w3.org/2000/svg">
<path d="M56.8409 70.2717C56.4669 70.2717 56.0928 70.1646 55.7544 69.986L52.3344 67.9502C51.8178 67.6645 52.0672 67.5573 52.2453 67.5038C52.9222 67.2716 53.0647 67.218 53.795 66.7895C53.8662 66.7537 53.9731 66.7716 54.0444 66.8073L56.6806 68.3788C56.7697 68.4324 56.9122 68.4324 57.0013 68.3788L67.2969 62.4143C67.3859 62.3607 67.4572 62.2536 67.4572 62.1286V50.2174C67.4572 50.0924 67.4037 49.9853 67.2969 49.9317L57.0013 43.985C56.9122 43.9315 56.7875 43.9315 56.6806 43.985L46.385 49.9317C46.2781 49.9853 46.2247 50.1103 46.2247 50.2174V62.1286C46.2247 62.2357 46.2959 62.3429 46.385 62.3964L49.1994 64.0215C50.7312 64.7894 51.6753 63.8786 51.6753 62.9857V51.2174C51.6753 51.0567 51.8 50.9139 51.9781 50.9139H53.2784C53.4387 50.9139 53.5812 51.0389 53.5812 51.2174V62.9857C53.5812 65.0394 52.4769 66.2001 50.5353 66.2001C49.9475 66.2001 49.4666 66.2001 48.1662 65.5573L45.4587 64.0036C44.7997 63.6108 44.3722 62.8965 44.3722 62.1286V50.2174C44.3722 49.4495 44.7819 48.7174 45.4587 48.3423L55.7544 42.3778C56.4134 42.0028 57.2684 42.0028 57.9097 42.3778L68.2053 48.3423C68.8644 48.7352 69.2919 49.4495 69.2919 50.2174V62.1286C69.2919 62.8965 68.8822 63.6286 68.2053 64.0036L57.9097 69.9681C57.6069 70.1646 57.2328 70.2717 56.8409 70.2717ZM65.1594 58.5213C65.1594 56.2891 63.6631 55.6998 60.4925 55.2712C57.2862 54.8426 56.9656 54.6283 56.9656 53.8783C56.9656 53.2532 57.2328 52.4318 59.6019 52.4318C61.7216 52.4318 62.5053 52.8961 62.8259 54.3247C62.8616 54.4676 62.9684 54.5569 63.1109 54.5569H64.4469C64.5359 54.5569 64.6072 54.5211 64.6606 54.4676C64.7141 54.3961 64.7497 54.3247 64.7319 54.2354C64.5181 51.771 62.8972 50.6281 59.6019 50.6281C56.6628 50.6281 54.9172 51.8782 54.9172 53.9497C54.9172 56.2176 56.6628 56.8248 59.4772 57.1105C62.8438 57.4498 63.1109 57.932 63.1109 58.5927C63.1109 59.7535 62.1847 60.2356 60.0116 60.2356C57.2862 60.2356 56.6806 59.557 56.4847 58.1999C56.4669 58.057 56.3422 57.9498 56.1819 57.9498H54.8459C54.6856 57.9498 54.5431 58.0749 54.5431 58.2534C54.5431 59.9856 55.4872 62.0571 59.9937 62.0571C63.2891 62.0571 65.1594 60.7714 65.1594 58.5213ZM74.8672 49.5745C74.8672 50.6639 73.9766 51.5568 72.89 51.5568C71.8034 51.5568 70.9128 50.6639 70.9128 49.5745C70.9128 48.4495 71.8391 47.5923 72.89 47.5923C73.9587 47.5745 74.8672 48.4495 74.8672 49.5745ZM74.5466 49.5745C74.5466 48.6459 73.7984 47.9138 72.8722 47.9138C71.9637 47.9138 71.2156 48.6459 71.2156 49.5745C71.2156 50.5031 71.9637 51.2532 72.8722 51.2532C73.7984 51.2353 74.5466 50.4853 74.5466 49.5745ZM73.745 50.6817H73.2819C73.2641 50.5746 73.1928 50.0031 73.1928 49.9853C73.1572 49.8603 73.1216 49.7888 72.9612 49.7888H72.5694V50.6817H72.1419V48.4495H72.9078C73.175 48.4495 73.6916 48.4495 73.6916 49.0388C73.6916 49.4495 73.4244 49.5388 73.2641 49.5924C73.5669 49.6103 73.5847 49.8067 73.6381 50.0924C73.6559 50.271 73.6916 50.5746 73.745 50.6817ZM73.2462 49.1102C73.2462 48.8066 73.0325 48.8066 72.9256 48.8066H72.5694V49.4317H72.9078C73.1928 49.4317 73.2462 49.2352 73.2462 49.1102ZM24.9566 23.6629C24.9566 23.1807 24.7072 22.7521 24.2975 22.52L13.3784 16.2162C13.2003 16.109 12.9866 16.0554 12.7728 16.0376H12.6659C12.4522 16.0376 12.2562 16.109 12.0603 16.2162L1.15906 22.52C0.749375 22.7521 0.5 23.1986 0.5 23.6629L0.517812 40.6278C0.517812 40.8599 0.6425 41.0742 0.838437 41.1992C1.03437 41.3242 1.28375 41.3242 1.4975 41.1992L7.98125 37.4669C8.39094 37.2169 8.64031 36.7883 8.64031 36.324V28.3952C8.64031 27.9309 8.88969 27.4844 9.29937 27.2523L12.0603 25.6629C12.2741 25.5379 12.4878 25.4844 12.7194 25.4844C12.9509 25.4844 13.1825 25.5379 13.3784 25.6629L16.1394 27.2523C16.5491 27.4844 16.7984 27.9309 16.7984 28.3952V36.324C16.7984 36.7883 17.0478 37.2348 17.4575 37.4669L23.9412 41.1992C24.1372 41.3242 24.4044 41.3242 24.6003 41.1992C24.7962 41.0921 24.9209 40.8599 24.9209 40.6278L24.9566 23.6629ZM84.6641 5.14432V36.6455C84.6641 37.1098 84.4147 37.5562 84.005 37.7884L73.0859 44.11C72.6762 44.3422 72.1775 44.3422 71.7678 44.11L60.8487 37.7884C60.4391 37.5562 60.1897 37.1098 60.1897 36.6455V24.0022C60.1897 23.5379 60.4391 23.0914 60.8487 22.8593L71.7678 16.5376C72.1775 16.3054 72.6762 16.3054 73.0859 16.5376L75.8112 18.1091C76.1141 18.2877 76.5059 18.0555 76.5059 17.7162V0.929874C76.5059 0.429855 77.0403 0.108415 77.4856 0.358424L83.9872 4.00142C84.3969 4.21571 84.6641 4.66216 84.6641 5.14432ZM76.4703 28.163C76.4703 28.038 76.3991 27.9309 76.31 27.8773L72.5694 25.6986C72.4625 25.6451 72.3378 25.6451 72.2309 25.6986L68.4903 27.8773C68.3834 27.9309 68.33 28.038 68.33 28.163V32.5025C68.33 32.6275 68.4013 32.7346 68.4903 32.7882L72.2309 34.949C72.3378 35.0026 72.4625 35.0026 72.5516 34.949L76.2922 32.7882C76.3991 32.7346 76.4525 32.6275 76.4525 32.5025V28.163H76.4703ZM113.841 28.038C114.251 27.8059 114.5 27.3594 114.5 26.8951V23.8414C114.5 23.3771 114.251 22.9307 113.841 22.6985L102.993 16.3769C102.583 16.1447 102.085 16.1447 101.675 16.3769L90.7559 22.6985C90.3463 22.9307 90.0969 23.3771 90.0969 23.8414V36.4848C90.0969 36.9669 90.3463 37.3955 90.7559 37.6277L101.604 43.8243C101.996 44.0565 102.494 44.0565 102.904 43.8243L109.459 40.1635C109.904 39.9135 109.904 39.2706 109.459 39.0206L98.4688 32.6989C98.255 32.5739 98.1303 32.3596 98.1303 32.1275V28.163C98.1303 27.9309 98.255 27.7166 98.4688 27.5916L101.889 25.6094C102.085 25.4844 102.352 25.4844 102.548 25.6094L105.968 27.5916C106.164 27.7166 106.306 27.9309 106.306 28.163V31.2703C106.306 31.7703 106.858 32.0917 107.304 31.8417L113.841 28.038ZM100.072 28.663C100.001 28.7166 99.9472 28.788 99.9472 28.8773V31.306C99.9472 31.3953 100.001 31.4846 100.072 31.5203L102.174 32.7346C102.245 32.7882 102.352 32.7882 102.423 32.7346L104.525 31.5203C104.596 31.4667 104.65 31.3953 104.65 31.306V28.8773C104.65 28.788 104.596 28.6988 104.525 28.663L102.423 27.4487C102.352 27.3951 102.245 27.3951 102.174 27.4487L100.072 28.663ZM54.7925 36.4312V23.8593C54.7925 23.395 54.5075 22.9485 54.0978 22.7164L43.2144 16.4304C42.8403 16.2162 42.3237 16.1804 41.8962 16.4304L31.0128 22.7164C30.6031 22.9485 30.3181 23.3771 30.3181 23.8593V36.4312C30.3181 36.9312 30.6566 37.3598 31.0306 37.5741L41.9319 43.86C42.3594 44.11 42.8581 44.0922 43.25 43.86L54.1156 37.5741C54.4362 37.3955 54.6678 37.0919 54.7569 36.7348C54.7747 36.6455 54.7925 36.5383 54.7925 36.4312ZM41.5578 14.1268L41.4153 14.2161H41.6112L41.5578 14.1268ZM55.1309 37.3777L55.0597 37.2527V37.4134L55.1309 37.3777Z" fill="black"/>
</svg>
