<svg width="46" height="47" viewBox="0 0 46 47" fill="none" xmlns="http://www.w3.org/2000/svg">
<path d="M22.5 0.943848C13.8008 0.943848 12 5.43604 12 8.0376V12.9438H22V13.9438H7.09375C3.79297 13.9438 0 16.5454 0 23.9438C0 31.3423 3.79297 33.9438 7.09375 33.9438H13V27.9438C13 25.7446 14.8008 23.9438 17 23.9438H29C30.6992 23.9438 32 22.6431 32 20.9438V8.0376C32 4.5376 28.6992 0.943848 22.5 0.943848ZM18 5.94385C19.1016 5.94385 20 6.84229 20 7.94385C20 9.04541 19.1016 9.94385 18 9.94385C16.8984 9.94385 16 9.04541 16 7.94385C16 6.84229 16.8984 5.94385 18 5.94385ZM33 13.9438V20.9438C33 23.1431 31.1992 24.9438 29 24.9438H17C15.3008 24.9438 14 26.2446 14 27.9438V39.8501C14 43.3501 17.3008 46.9438 23.5 46.9438C32.1992 46.9438 34 42.4517 34 39.8501V34.9438H24V33.9438H38.9062C42.207 33.9438 46 31.3423 46 23.9438C46 16.5454 42.207 13.9438 38.9062 13.9438H33ZM28 37.9438C29.1016 37.9438 30 38.8423 30 39.9438C30 41.0454 29.1016 41.9438 28 41.9438C26.8984 41.9438 26 41.0454 26 39.9438C26 38.8423 26.8984 37.9438 28 37.9438Z" fill="black"/>
</svg>
