<svg width="57" height="57" viewBox="0 0 56 57" fill="none" xmlns="http://www.w3.org/2000/svg">
<path d="M46.5115 31.2258C44.7172 31.2352 43.1632 31.6657 41.8612 32.3085C41.3852 31.3577 40.9022 30.5212 40.8217 29.8993C40.7272 29.1737 40.6175 28.7397 40.7318 27.8752C40.8462 27.0107 41.3467 25.7857 41.3397 25.6935C41.3327 25.6013 41.2277 25.1615 40.1928 25.1533C39.158 25.1463 38.2725 25.3528 38.1687 25.6258C38.0648 25.8988 37.8653 26.5137 37.7417 27.1553C37.5608 28.0933 35.6755 31.4405 34.6057 33.1905C34.2557 32.5068 33.9582 31.9048 33.8963 31.4288C33.8018 30.7032 33.6922 30.2692 33.8065 29.4047C33.9208 28.5402 34.4213 27.3152 34.4143 27.223C34.4073 27.1308 34.3023 26.691 33.2675 26.6828C32.2327 26.6758 31.3472 26.8823 31.2433 27.1553C31.1395 27.4283 31.0275 28.0665 30.8163 28.6848C30.604 29.302 28.0992 34.8845 27.4423 36.3323C27.1075 37.0697 26.817 37.6623 26.6117 38.066L26.6105 38.0637C26.6105 38.0637 26.5977 38.0905 26.5767 38.136C26.4005 38.4802 26.2967 38.6703 26.2967 38.6703C26.2967 38.6703 26.2978 38.6727 26.3002 38.6773C26.1602 38.9305 26.0108 39.165 25.9373 39.165C25.886 39.165 25.7822 38.4918 25.9595 37.5678C26.3328 35.6312 27.2277 32.6118 27.2195 32.5068C27.2148 32.4532 27.3863 31.927 26.635 31.6517C25.9047 31.3845 25.6445 31.8302 25.578 31.8313C25.5138 31.8325 25.466 31.9888 25.466 31.9888C25.466 31.9888 26.2792 28.5927 23.9143 28.5927C22.435 28.5927 20.3863 30.2108 19.3772 31.6773C18.7402 32.025 17.3763 32.7693 15.9308 33.5638C15.3755 33.8695 14.8085 34.181 14.2707 34.4773C14.2345 34.4365 14.1972 34.3968 14.1598 34.356C11.291 31.2958 5.98967 29.1317 6.21367 25.0168C6.29533 23.5212 6.81567 19.5825 16.4022 14.8062C24.255 10.8932 30.5422 11.97 31.6283 14.3558C33.18 17.766 28.2683 24.1022 20.1133 25.0168C17.0065 25.3657 15.3697 24.1605 14.9625 23.7125C14.5343 23.24 14.4702 23.219 14.3103 23.3077C14.0502 23.4523 14.2147 23.8688 14.3103 24.1173C14.5542 24.7508 15.5528 25.8743 17.2562 26.4343C18.7553 26.9267 22.4035 27.1962 26.8147 25.4893C31.7567 23.5783 35.6148 18.2607 34.4808 13.8168C33.3282 9.29716 25.8335 7.81083 18.7402 10.3308C14.5133 11.8312 9.9435 14.1855 6.657 17.2585C2.74983 20.9125 2.12683 24.094 2.3835 25.4228C3.29583 30.1455 9.80467 33.2208 12.411 35.4993C12.2827 35.5705 12.1613 35.637 12.0517 35.6977C10.745 36.344 5.78317 38.941 4.54183 41.6838C3.13367 44.7953 4.76583 47.0283 5.84617 47.3293C9.19333 48.2603 12.628 46.585 14.4748 43.8317C16.3205 41.0795 16.0953 37.4943 15.2483 35.8587C15.2378 35.8388 15.2262 35.819 15.2157 35.798C15.5528 35.5985 15.897 35.3955 16.2377 35.1948C16.9027 34.804 17.556 34.44 18.1218 34.132C17.8045 35 17.5723 36.0418 17.4522 37.5457C17.3098 39.312 18.0343 41.5952 18.9817 42.4935C19.3993 42.889 19.901 42.8983 20.2183 42.8983C21.3208 42.8983 21.8237 41.9813 22.3778 40.8963C23.0568 39.5663 23.66 38.017 23.66 38.017C23.66 38.017 22.904 42.2007 24.9643 42.2007C25.7157 42.2007 26.4705 41.2265 26.8077 40.7307C26.8088 40.7365 26.8088 40.7388 26.8088 40.7388C26.8088 40.7388 26.8287 40.7062 26.8672 40.642C26.9453 40.523 26.9897 40.4472 26.9897 40.4472C26.9897 40.4472 26.9908 40.439 26.9932 40.425C27.2953 39.9012 27.965 38.7065 28.9683 36.736C30.2657 34.1903 31.5093 31.0007 31.5093 31.0007C31.5093 31.0007 31.6248 31.78 32.004 33.0703C32.2268 33.8287 32.7005 34.6675 33.075 35.4725C32.774 35.8902 32.5897 36.1293 32.5897 36.1293C32.5897 36.1293 32.5908 36.134 32.5943 36.1422C32.354 36.4618 32.0845 36.806 31.8022 37.142C30.7778 38.3612 29.5587 39.7542 29.3953 40.1555C29.2028 40.6292 29.2483 40.9768 29.6205 41.258C29.8923 41.4622 30.3753 41.4948 30.8805 41.461C31.801 41.3992 32.4473 41.1705 32.767 41.0317C33.2652 40.8555 33.845 40.579 34.3887 40.1788C35.3932 39.4403 35.9987 38.3845 35.9403 36.9845C35.9077 36.2133 35.6627 35.4492 35.3512 34.7282C35.4422 34.5975 35.5332 34.4645 35.6253 34.3315C37.2085 32.0168 38.437 29.4735 38.437 29.4735C38.437 29.4735 38.5525 30.2528 38.9317 31.5432C39.123 32.1953 39.5022 32.9082 39.8428 33.6058C38.3542 34.8157 37.4313 36.2215 37.1105 37.1432C36.5178 38.8488 36.9822 39.6212 37.8525 39.7973C38.2468 39.8767 38.8045 39.6958 39.2233 39.5185C39.7448 39.3458 40.3713 39.0577 40.957 38.6272C41.9615 37.8887 42.9275 36.855 42.8692 35.4562C42.8423 34.8192 42.6697 34.1868 42.4352 33.5802C43.6975 33.054 45.3308 32.7623 47.4122 33.005C51.877 33.5265 52.752 36.3137 52.5852 37.4803C52.4172 38.647 51.4815 39.2887 51.1677 39.4823C50.855 39.676 50.7593 39.7437 50.785 39.8872C50.8235 40.096 50.9682 40.089 51.2353 40.0435C51.6028 39.9817 53.5792 39.095 53.6643 36.9413C53.7705 34.2043 51.1513 31.2013 46.5115 31.2258ZM12.0983 42.8272C10.619 44.4407 8.554 45.0497 7.66733 44.5363C6.71067 43.9822 7.08983 41.6068 8.904 39.8942C10.01 38.8512 11.438 37.8898 12.3853 37.2983C12.6012 37.1688 12.9173 36.9787 13.3023 36.7477C13.3665 36.7115 13.4027 36.6917 13.4027 36.6917L13.4015 36.6893C13.4762 36.645 13.552 36.5995 13.6302 36.5517C14.2917 38.9888 13.6512 41.1343 12.0983 42.8272ZM22.8725 35.504C22.358 36.7593 21.28 39.9723 20.6232 39.7997C20.0597 39.6515 19.7167 37.2097 20.5112 34.8063C20.9102 33.5965 21.7642 32.151 22.2658 31.5898C23.0732 30.6868 23.9622 30.3917 24.178 30.758C24.4522 31.2247 23.1957 34.7165 22.8725 35.504ZM31.773 39.7507C31.5548 39.865 31.3542 39.9362 31.262 39.8813C31.1932 39.8405 31.3518 39.69 31.3518 39.69C31.3518 39.69 32.4648 38.4918 32.9035 37.947C33.159 37.6297 33.4542 37.2528 33.7762 36.8328C33.7785 36.8748 33.7797 36.9168 33.7797 36.9577C33.7773 38.3927 32.3913 39.361 31.773 39.7507ZM38.6295 38.1873C38.4662 38.0718 38.4942 37.6973 39.0297 36.5295C39.2397 36.071 39.7203 35.2998 40.5533 34.5625C40.6502 34.8658 40.7085 35.1563 40.7073 35.427C40.6968 37.233 39.4088 37.9073 38.6295 38.1873Z" fill="black"/>
</svg>
