<svg width="57" height="57" viewBox="0 0 50 51" fill="none" xmlns="http://www.w3.org/2000/svg">
<path fill-rule="evenodd" clip-rule="evenodd" d="M8.9286 36.4935C8.455 36.4935 8.00079 36.6816 7.66591 37.0165C7.33102 37.3514 7.14288 37.8056 7.14288 38.2792C7.14288 38.7528 7.33102 39.207 7.66591 39.5419C8.00079 39.8768 8.455 40.065 8.9286 40.065H16.0715C16.5451 40.065 16.9993 39.8768 17.3341 39.5419C17.669 39.207 17.8572 38.7528 17.8572 38.2792C17.8572 37.8056 17.669 37.3514 17.3341 37.0165C16.9993 36.6816 16.5451 36.4935 16.0715 36.4935H8.9286Z" fill="black"/>
<path fill-rule="evenodd" clip-rule="evenodd" d="M35.7143 32.9221C35.2407 32.9222 34.7865 33.1104 34.4517 33.4453L30.8803 37.0167C30.8574 37.044 30.8353 37.0719 30.814 37.1005C30.7705 37.1493 30.7298 37.2005 30.6919 37.2539C30.6554 37.3055 30.6217 37.359 30.5908 37.4142C30.5569 37.4752 30.5266 37.538 30.5001 37.6025C30.4746 37.6629 30.4525 37.7246 30.4338 37.7874C30.4165 37.8494 30.4026 37.9122 30.3921 37.9757C30.3797 38.0461 30.3715 38.1171 30.3676 38.1885C30.3633 38.2186 30.3597 38.2489 30.3569 38.2792C30.3597 38.3095 30.3633 38.3397 30.3676 38.3699C30.3715 38.4412 30.3797 38.5123 30.3921 38.5826C30.4026 38.6461 30.4165 38.709 30.4338 38.771C30.4525 38.8338 30.4746 38.8955 30.5001 38.9558C30.5266 39.0203 30.5569 39.0832 30.5908 39.1442C30.6217 39.1994 30.6554 39.2529 30.6919 39.3045C30.7298 39.3579 30.7705 39.4091 30.814 39.4579C30.8353 39.4865 30.8574 39.5145 30.8803 39.5417L34.4517 43.1131C34.7866 43.4479 35.2407 43.636 35.7143 43.636C36.1878 43.636 36.6419 43.4479 36.9768 43.1131C37.3116 42.7783 37.4997 42.3241 37.4997 41.8506C37.4997 41.377 37.3116 40.9229 36.9768 40.588L36.4537 40.0649H42.8571C43.3307 40.0649 43.7849 39.8767 44.1198 39.5418C44.4547 39.2069 44.6428 38.7528 44.6428 38.2792C44.6428 37.8056 44.4547 37.3513 44.1198 37.0164C43.7849 36.6815 43.3307 36.4934 42.8571 36.4934H36.4537L36.9768 35.9703C37.3116 35.6354 37.4997 35.1813 37.4997 34.7077C37.4997 34.2342 37.3116 33.78 36.9768 33.4452C36.642 33.1103 36.1878 32.9222 35.7143 32.9221Z" fill="black"/>
<path fill-rule="evenodd" clip-rule="evenodd" d="M8.9286 22.2079C8.455 22.2079 8.00079 22.396 7.66591 22.7309C7.33102 23.0658 7.14288 23.52 7.14288 23.9936C7.14288 24.4672 7.33102 24.9214 7.66591 25.2563C8.00079 25.5912 8.455 25.7793 8.9286 25.7793H16.0715C16.5451 25.7793 16.9993 25.5912 17.3341 25.2563C17.669 24.9214 17.8572 24.4672 17.8572 23.9936C17.8572 23.52 17.669 23.0658 17.3341 22.7309C16.9993 22.396 16.5451 22.2079 16.0715 22.2079H8.9286Z" fill="black"/>
<path fill-rule="evenodd" clip-rule="evenodd" d="M8.9286 7.92212C8.455 7.92212 8.00079 8.11023 7.66591 8.44511C7.33102 8.78 7.14288 9.23423 7.14288 9.70783C7.14288 10.1814 7.33102 10.6356 7.66591 10.9705C8.00079 11.3054 8.455 11.4935 8.9286 11.4935H16.0715C16.5451 11.4935 16.9993 11.3054 17.3341 10.9705C17.669 10.6356 17.8572 10.1814 17.8572 9.70783C17.8572 9.23423 17.669 8.78 17.3341 8.44511C16.9993 8.11023 16.5451 7.92212 16.0715 7.92212H8.9286Z" fill="black"/>
<path fill-rule="evenodd" clip-rule="evenodd" d="M5.35714 0.779297C2.42018 0.779297 0 3.19948 0 6.13644V13.2793C0 14.6477 0.529917 15.8992 1.38811 16.8507C0.529917 17.8022 0 19.0538 0 20.4222V27.565C0 28.9334 0.529917 30.1849 1.38811 31.1364C0.529917 32.0879 0 33.3395 0 34.7079V41.8507C0 44.7877 2.42018 47.2079 5.35714 47.2079H28.7702C31.0265 49.4146 34.109 50.7793 37.5 50.7793C44.3824 50.7793 50 45.1617 50 38.2793C50 33.3121 47.073 29.0027 42.8571 26.9895V20.4222C42.8571 19.0538 42.3272 17.8022 41.469 16.8507C42.3272 15.8992 42.8571 14.6477 42.8571 13.2793V6.13644C42.8571 3.19948 40.437 0.779297 37.5 0.779297H5.35714ZM5.35714 4.35073H37.5C38.5202 4.35073 39.2857 5.11628 39.2857 6.13644V13.2793C39.2857 14.2995 38.5202 15.065 37.5 15.065H5.35714C4.33696 15.065 3.57143 14.2995 3.57143 13.2793V6.13644C3.57143 5.11628 4.33696 4.35073 5.35714 4.35073ZM5.35714 18.6364H37.5C38.5202 18.6364 39.2857 19.402 39.2857 20.4222V25.9083C38.7016 25.8241 38.1068 25.7792 37.5 25.7792C34.109 25.7792 31.0265 27.1439 28.7702 29.3507H5.35714C4.33696 29.3507 3.57143 28.5851 3.57143 27.565V20.4221C3.57143 19.4019 4.33696 18.6364 5.35714 18.6364ZM37.5 29.3507C42.4523 29.3507 46.4286 33.327 46.4286 38.2793C46.4286 43.2316 42.4523 47.2079 37.5 47.2079C34.9272 47.2079 32.6207 46.1329 30.9954 44.4072C30.9097 44.2847 30.8089 44.1733 30.6955 44.0759C29.3701 42.5191 28.5714 40.497 28.5714 38.2793C28.5714 36.0358 29.3911 33.9943 30.7443 32.4304C30.7849 32.387 30.8232 32.3416 30.8593 32.2943C32.4903 30.4837 34.8557 29.3507 37.5 29.3507ZM5.35714 32.9222H26.2102C25.434 34.5477 25 36.3641 25 38.2793C25 40.1945 25.434 42.0109 26.2102 43.6364H5.35714C4.33696 43.6364 3.57143 42.8709 3.57143 41.8507V34.7079C3.57143 33.6877 4.33696 32.9222 5.35714 32.9222Z" fill="black"/>
</svg>
