<svg width="20" height="20" viewBox="0 0 20 18" fill="none" xmlns="http://www.w3.org/2000/svg">
<path d="M6.95626 12.0329L1.8816 10.4004C1.02577 10.125 0.93963 8.94822 1.74625 8.55122L17.3683 0.862422C18.1667 0.469472 19.0421 1.23672 18.7573 2.07975L14.7236 14.0176C14.5397 14.5619 13.9361 14.8396 13.4031 14.6253L10.6528 13.5193M6.95626 12.0329V16.1292C6.95626 17.1479 8.30139 17.5143 8.81809 16.6365L10.6528 13.5193M6.95626 12.0329L10.6528 13.5193L6.95626 12.0329ZM6.95626 12.0329L18.3454 1.18302L6.95626 12.0329Z" fill="white"/>
<path d="M6.95626 12.0329L1.8816 10.4004C1.02577 10.125 0.93963 8.94822 1.74625 8.55122L17.3683 0.862422C18.1667 0.469472 19.0421 1.23672 18.7573 2.07975L14.7236 14.0176C14.5397 14.5619 13.9361 14.8396 13.4031 14.6253L10.6528 13.5193M6.95626 12.0329V16.1292C6.95626 17.1479 8.30139 17.5143 8.81809 16.6365L10.6528 13.5193M6.95626 12.0329L10.6528 13.5193M6.95626 12.0329L18.3454 1.18302" stroke="black" stroke-width="1.25" stroke-linecap="round"/>
</svg>
